<svg id="visual" viewBox="0 0 1800 200" width="1800" height="200" xmlns="http://www.w3.org/2000/svg" xmlns:xlink="http://www.w3.org/1999/xlink" version="1.1"><path d="M0 17L27.3 19C54.7 21 109.3 25 163.8 28.7C218.3 32.3 272.7 35.7 327.2 34C381.7 32.3 436.3 25.7 491 25.7C545.7 25.7 600.3 32.3 654.8 34.7C709.3 37 763.7 35 818.2 32C872.7 29 927.3 25 981.8 23C1036.3 21 1090.7 21 1145.2 24.3C1199.7 27.7 1254.3 34.3 1309 33.7C1363.7 33 1418.3 25 1472.8 20.7C1527.3 16.3 1581.7 15.7 1636.2 18.3C1690.7 21 1745.3 27 1772.7 30L1800 33L1800 0L1772.7 0C1745.3 0 1690.7 0 1636.2 0C1581.7 0 1527.3 0 1472.8 0C1418.3 0 1363.7 0 1309 0C1254.3 0 1199.7 0 1145.2 0C1090.7 0 1036.3 0 981.8 0C927.3 0 872.7 0 818.2 0C763.7 0 709.3 0 654.8 0C600.3 0 545.7 0 491 0C436.3 0 381.7 0 327.2 0C272.7 0 218.3 0 163.8 0C109.3 0 54.7 0 27.3 0L0 0Z" fill="#f4a9c6"></path><path d="M0 45L27.3 48.7C54.7 52.3 109.3 59.7 163.8 69C218.3 78.3 272.7 89.7 327.2 91C381.7 92.3 436.3 83.7 491 78.3C545.7 73 600.3 71 654.8 76C709.3 81 763.7 93 818.2 93.3C872.7 93.7 927.3 82.3 981.8 80C1036.3 77.7 1090.7 84.3 1145.2 84.7C1199.7 85 1254.3 79 1309 83.7C1363.7 88.3 1418.3 103.7 1472.8 109.7C1527.3 115.7 1581.7 112.3 1636.2 105.7C1690.7 99 1745.3 89 1772.7 84L1800 79L1800 31L1772.7 28C1745.3 25 1690.7 19 1636.2 16.3C1581.7 13.7 1527.3 14.3 1472.8 18.7C1418.3 23 1363.7 31 1309 31.7C1254.3 32.3 1199.7 25.7 1145.2 22.3C1090.7 19 1036.3 19 981.8 21C927.3 23 872.7 27 818.2 30C763.7 33 709.3 35 654.8 32.7C600.3 30.3 545.7 23.7 491 23.7C436.3 23.7 381.7 30.3 327.2 32C272.7 33.7 218.3 30.3 163.8 26.7C109.3 23 54.7 19 27.3 17L0 15Z" fill="#f291b5"></path><path d="M0 93L27.3 96.3C54.7 99.7 109.3 106.3 163.8 113C218.3 119.7 272.7 126.3 327.2 125.7C381.7 125 436.3 117 491 111C545.7 105 600.3 101 654.8 105.7C709.3 110.3 763.7 123.7 818.2 126.7C872.7 129.7 927.3 122.3 981.8 120C1036.3 117.7 1090.7 120.3 1145.2 119C1199.7 117.7 1254.3 112.3 1309 116.3C1363.7 120.3 1418.3 133.7 1472.8 140.7C1527.3 147.7 1581.7 148.3 1636.2 145C1690.7 141.7 1745.3 134.3 1772.7 130.7L1800 127L1800 77L1772.7 82C1745.3 87 1690.7 97 1636.2 103.7C1581.7 110.3 1527.3 113.7 1472.8 107.7C1418.3 101.7 1363.7 86.3 1309 81.7C1254.3 77 1199.7 83 1145.2 82.7C1090.7 82.3 1036.3 75.7 981.8 78C927.3 80.3 872.7 91.7 818.2 91.3C763.7 91 709.3 79 654.8 74C600.3 69 545.7 71 491 76.3C436.3 81.7 381.7 90.3 327.2 89C272.7 87.7 218.3 76.3 163.8 67C109.3 57.7 54.7 50.3 27.3 46.7L0 43Z" fill="#ef78a4"></path><path d="M0 127L27.3 127.7C54.7 128.3 109.3 129.7 163.8 135C218.3 140.3 272.7 149.7 327.2 151C381.7 152.3 436.3 145.7 491 141C545.7 136.3 600.3 133.7 654.8 136.7C709.3 139.7 763.7 148.3 818.2 149.7C872.7 151 927.3 145 981.8 143.7C1036.3 142.3 1090.7 145.7 1145.2 143C1199.7 140.3 1254.3 131.7 1309 133.7C1363.7 135.7 1418.3 148.3 1472.8 154.7C1527.3 161 1581.7 161 1636.2 157.3C1690.7 153.7 1745.3 146.3 1772.7 142.7L1800 139L1800 125L1772.7 128.7C1745.3 132.3 1690.7 139.7 1636.2 143C1581.7 146.3 1527.3 145.7 1472.8 138.7C1418.3 131.7 1363.7 118.3 1309 114.3C1254.3 110.3 1199.7 115.7 1145.2 117C1090.7 118.3 1036.3 115.7 981.8 118C927.3 120.3 872.7 127.7 818.2 124.7C763.7 121.7 709.3 108.3 654.8 103.7C600.3 99 545.7 103 491 109C436.3 115 381.7 123 327.2 123.7C272.7 124.3 218.3 117.7 163.8 111C109.3 104.3 54.7 97.7 27.3 94.3L0 91Z" fill="#ec5d91"></path><path d="M0 201L27.3 201C54.7 201 109.3 201 163.8 201C218.3 201 272.7 201 327.2 201C381.7 201 436.3 201 491 201C545.7 201 600.3 201 654.8 201C709.3 201 763.7 201 818.2 201C872.7 201 927.3 201 981.8 201C1036.3 201 1090.7 201 1145.2 201C1199.7 201 1254.3 201 1309 201C1363.7 201 1418.3 201 1472.8 201C1527.3 201 1581.7 201 1636.2 201C1690.7 201 1745.3 201 1772.7 201L1800 201L1800 137L1772.7 140.7C1745.3 144.3 1690.7 151.7 1636.2 155.3C1581.7 159 1527.3 159 1472.8 152.7C1418.3 146.3 1363.7 133.7 1309 131.7C1254.3 129.7 1199.7 138.3 1145.2 141C1090.7 143.7 1036.3 140.3 981.8 141.7C927.3 143 872.7 149 818.2 147.7C763.7 146.3 709.3 137.7 654.8 134.7C600.3 131.7 545.7 134.3 491 139C436.3 143.7 381.7 150.3 327.2 149C272.7 147.7 218.3 138.3 163.8 133C109.3 127.7 54.7 126.3 27.3 125.7L0 125Z" fill="#e73c7e"></path></svg>