<svg id="visual" viewBox="0 0 960 540" width="960" height="540" xmlns="http://www.w3.org/2000/svg" xmlns:xlink="http://www.w3.org/1999/xlink" version="1.1"><path d="M0 39L69 39L69 55L137 55L137 50L206 50L206 44L274 44L274 33L343 33L343 39L411 39L411 33L480 33L480 39L549 39L549 55L617 55L617 50L686 50L686 39L754 39L754 28L823 28L823 50L891 50L891 33L960 33L960 39L960 0L960 0L891 0L891 0L823 0L823 0L754 0L754 0L686 0L686 0L617 0L617 0L549 0L549 0L480 0L480 0L411 0L411 0L343 0L343 0L274 0L274 0L206 0L206 0L137 0L137 0L69 0L69 0L0 0Z" fill="#ffffff"></path><path d="M0 87L69 87L69 104L137 104L137 93L206 93L206 93L274 93L274 71L343 71L343 87L411 87L411 60L480 60L480 87L549 87L549 93L617 93L617 93L686 93L686 93L754 93L754 60L823 60L823 77L891 77L891 66L960 66L960 71L960 37L960 31L891 31L891 48L823 48L823 26L754 26L754 37L686 37L686 48L617 48L617 53L549 53L549 37L480 37L480 31L411 31L411 37L343 37L343 31L274 31L274 42L206 42L206 48L137 48L137 53L69 53L69 37L0 37Z" fill="#e0dff6"></path><path d="M0 179L69 179L69 163L137 163L137 174L206 174L206 168L274 168L274 152L343 152L343 141L411 141L411 168L480 168L480 152L549 152L549 190L617 190L617 190L686 190L686 152L754 152L754 174L823 174L823 141L891 141L891 131L960 131L960 163L960 69L960 64L891 64L891 75L823 75L823 58L754 58L754 91L686 91L686 91L617 91L617 91L549 91L549 85L480 85L480 58L411 58L411 85L343 85L343 69L274 69L274 91L206 91L206 91L137 91L137 102L69 102L69 85L0 85Z" fill="#c1c1ec"></path><path d="M0 330L69 330L69 260L137 260L137 271L206 271L206 325L274 325L274 239L343 239L343 303L411 303L411 271L480 271L480 255L549 255L549 303L617 303L617 336L686 336L686 320L754 320L754 260L823 260L823 357L891 357L891 347L960 347L960 249L960 161L960 129L891 129L891 139L823 139L823 172L754 172L754 150L686 150L686 188L617 188L617 188L549 188L549 150L480 150L480 166L411 166L411 139L343 139L343 150L274 150L274 166L206 166L206 172L137 172L137 161L69 161L69 177L0 177Z" fill="#a1a3e2"></path><path d="M0 395L69 395L69 320L137 320L137 314L206 314L206 406L274 406L274 314L343 314L343 363L411 363L411 347L480 347L480 336L549 336L549 352L617 352L617 374L686 374L686 368L754 368L754 352L823 352L823 401L891 401L891 411L960 411L960 325L960 247L960 345L891 345L891 355L823 355L823 258L754 258L754 318L686 318L686 334L617 334L617 301L549 301L549 253L480 253L480 269L411 269L411 301L343 301L343 237L274 237L274 323L206 323L206 269L137 269L137 258L69 258L69 328L0 328Z" fill="#7f86d8"></path><path d="M0 444L69 444L69 352L137 352L137 363L206 363L206 460L274 460L274 374L343 374L343 422L411 422L411 411L480 411L480 374L549 374L549 417L617 417L617 444L686 444L686 401L754 401L754 401L823 401L823 444L891 444L891 444L960 444L960 357L960 323L960 409L891 409L891 399L823 399L823 350L754 350L754 366L686 366L686 372L617 372L617 350L549 350L549 334L480 334L480 345L411 345L411 361L343 361L343 312L274 312L274 404L206 404L206 312L137 312L137 318L69 318L69 393L0 393Z" fill="#586ace"></path><path d="M0 541L69 541L69 541L137 541L137 541L206 541L206 541L274 541L274 541L343 541L343 541L411 541L411 541L480 541L480 541L549 541L549 541L617 541L617 541L686 541L686 541L754 541L754 541L823 541L823 541L891 541L891 541L960 541L960 541L960 355L960 442L891 442L891 442L823 442L823 399L754 399L754 399L686 399L686 442L617 442L617 415L549 415L549 372L480 372L480 409L411 409L411 420L343 420L343 372L274 372L274 458L206 458L206 361L137 361L137 350L69 350L69 442L0 442Z" fill="#1d50c3"></path></svg>