<svg id="visual" viewBox="0 0 1200 200" width="1200" height="200" xmlns="http://www.w3.org/2000/svg" xmlns:xlink="http://www.w3.org/1999/xlink" version="1.1"><rect x="0" y="0" width="1200" height="200" fill="#FFFFFF"></rect><path d="M0 113L28.5 114.3C57 115.7 114 118.3 171.2 119.2C228.3 120 285.7 119 342.8 116.7C400 114.3 457 110.7 514.2 111.2C571.3 111.7 628.7 116.3 685.8 119.2C743 122 800 123 857.2 123.5C914.3 124 971.7 124 1028.8 123.2C1086 122.3 1143 120.7 1171.5 119.8L1200 119L1200 201L1171.5 201C1143 201 1086 201 1028.8 201C971.7 201 914.3 201 857.2 201C800 201 743 201 685.8 201C628.7 201 571.3 201 514.2 201C457 201 400 201 342.8 201C285.7 201 228.3 201 171.2 201C114 201 57 201 28.5 201L0 201Z" fill="#ffffff"></path><path d="M0 140L28.5 137.8C57 135.7 114 131.3 171.2 128.5C228.3 125.7 285.7 124.3 342.8 121.5C400 118.7 457 114.3 514.2 115.7C571.3 117 628.7 124 685.8 122.8C743 121.7 800 112.3 857.2 114.3C914.3 116.3 971.7 129.7 1028.8 132.8C1086 136 1143 129 1171.5 125.5L1200 122L1200 201L1171.5 201C1143 201 1086 201 1028.8 201C971.7 201 914.3 201 857.2 201C800 201 743 201 685.8 201C628.7 201 571.3 201 514.2 201C457 201 400 201 342.8 201C285.7 201 228.3 201 171.2 201C114 201 57 201 28.5 201L0 201Z" fill="#d4e8f5"></path><path d="M0 132L28.5 134.7C57 137.3 114 142.7 171.2 141.5C228.3 140.3 285.7 132.7 342.8 132.7C400 132.7 457 140.3 514.2 144.3C571.3 148.3 628.7 148.7 685.8 148.3C743 148 800 147 857.2 144.3C914.3 141.7 971.7 137.3 1028.8 134.8C1086 132.3 1143 131.7 1171.5 131.3L1200 131L1200 201L1171.5 201C1143 201 1086 201 1028.8 201C971.7 201 914.3 201 857.2 201C800 201 743 201 685.8 201C628.7 201 571.3 201 514.2 201C457 201 400 201 342.8 201C285.7 201 228.3 201 171.2 201C114 201 57 201 28.5 201L0 201Z" fill="#a6d2ea"></path><path d="M0 171L28.5 171.2C57 171.3 114 171.7 171.2 168.3C228.3 165 285.7 158 342.8 156.5C400 155 457 159 514.2 162.5C571.3 166 628.7 169 685.8 170.2C743 171.3 800 170.7 857.2 168.5C914.3 166.3 971.7 162.7 1028.8 160.2C1086 157.7 1143 156.3 1171.5 155.7L1200 155L1200 201L1171.5 201C1143 201 1086 201 1028.8 201C971.7 201 914.3 201 857.2 201C800 201 743 201 685.8 201C628.7 201 571.3 201 514.2 201C457 201 400 201 342.8 201C285.7 201 228.3 201 171.2 201C114 201 57 201 28.5 201L0 201Z" fill="#73bce0"></path><path d="M0 178L28.5 176.5C57 175 114 172 171.2 171.7C228.3 171.3 285.7 173.7 342.8 175.7C400 177.7 457 179.3 514.2 180.7C571.3 182 628.7 183 685.8 180.2C743 177.3 800 170.7 857.2 170.3C914.3 170 971.7 176 1028.8 179.3C1086 182.7 1143 183.3 1171.5 183.7L1200 184L1200 201L1171.5 201C1143 201 1086 201 1028.8 201C971.7 201 914.3 201 857.2 201C800 201 743 201 685.8 201C628.7 201 571.3 201 514.2 201C457 201 400 201 342.8 201C285.7 201 228.3 201 171.2 201C114 201 57 201 28.5 201L0 201Z" fill="#23a6d5"></path></svg>