<svg id="visual" viewBox="0 0 1200 200" width="1200" height="200" xmlns="http://www.w3.org/2000/svg" xmlns:xlink="http://www.w3.org/1999/xlink" version="1.1"><path d="M0 91L92 91L92 71L185 71L185 67L277 67L277 37L369 37L369 83L462 83L462 69L554 69L554 59L646 59L646 73L738 73L738 85L831 85L831 55L923 55L923 95L1015 95L1015 51L1108 51L1108 87L1200 87L1200 45L1200 0L1200 0L1108 0L1108 0L1015 0L1015 0L923 0L923 0L831 0L831 0L738 0L738 0L646 0L646 0L554 0L554 0L462 0L462 0L369 0L369 0L277 0L277 0L185 0L185 0L92 0L92 0L0 0Z" fill="#ffffff"></path><path d="M0 109L92 109L92 103L185 103L185 97L277 97L277 57L369 57L369 111L462 111L462 101L554 101L554 71L646 71L646 103L738 103L738 103L831 103L831 83L923 83L923 121L1015 121L1015 67L1108 67L1108 115L1200 115L1200 75L1200 43L1200 85L1108 85L1108 49L1015 49L1015 93L923 93L923 53L831 53L831 83L738 83L738 71L646 71L646 57L554 57L554 67L462 67L462 81L369 81L369 35L277 35L277 65L185 65L185 69L92 69L92 89L0 89Z" fill="#d4e8f5"></path><path d="M0 135L92 135L92 129L185 129L185 115L277 115L277 91L369 91L369 127L462 127L462 131L554 131L554 105L646 105L646 131L738 131L738 133L831 133L831 107L923 107L923 143L1015 143L1015 95L1108 95L1108 143L1200 143L1200 119L1200 73L1200 113L1108 113L1108 65L1015 65L1015 119L923 119L923 81L831 81L831 101L738 101L738 101L646 101L646 69L554 69L554 99L462 99L462 109L369 109L369 55L277 55L277 95L185 95L185 101L92 101L92 107L0 107Z" fill="#a6d2ea"></path><path d="M0 177L92 177L92 171L185 171L185 161L277 161L277 183L369 183L369 167L462 167L462 171L554 171L554 175L646 175L646 177L738 177L738 165L831 165L831 169L923 169L923 177L1015 177L1015 157L1108 157L1108 179L1200 179L1200 163L1200 117L1200 141L1108 141L1108 93L1015 93L1015 141L923 141L923 105L831 105L831 131L738 131L738 129L646 129L646 103L554 103L554 129L462 129L462 125L369 125L369 89L277 89L277 113L185 113L185 127L92 127L92 133L0 133Z" fill="#73bce0"></path><path d="M0 201L92 201L92 201L185 201L185 201L277 201L277 201L369 201L369 201L462 201L462 201L554 201L554 201L646 201L646 201L738 201L738 201L831 201L831 201L923 201L923 201L1015 201L1015 201L1108 201L1108 201L1200 201L1200 201L1200 161L1200 177L1108 177L1108 155L1015 155L1015 175L923 175L923 167L831 167L831 163L738 163L738 175L646 175L646 173L554 173L554 169L462 169L462 165L369 165L369 181L277 181L277 159L185 159L185 169L92 169L92 175L0 175Z" fill="#23a6d5"></path></svg>